<!--?xml version="1.0" standalone="no"?-->
              <svg id="sw-js-blob-svg" viewBox="0 0 100 100" xmlns="http://www.w3.org/2000/svg" version="1.1">
                    <defs> 
                        <linearGradient id="sw-gradient" x1="0" x2="1" y1="1" y2="0">
                            <stop id="stop1" stop-color="rgba(221.627, 248, 55, 1)" offset="0%"></stop>
                            <stop id="stop2" stop-color="rgba(153.857, 251, 31, 1)" offset="100%"></stop>
                        </linearGradient>
                    </defs>
                <path fill="url(#sw-gradient)" d="M26.4,-31.9C33.2,-25.8,36.9,-16.5,39.3,-6.5C41.6,3.6,42.4,14.3,38.2,22.5C34,30.8,24.7,36.6,14.8,39.7C5,42.8,-5.5,43.3,-14.7,40.1C-24,36.9,-32.1,30,-36.4,21.5C-40.7,13,-41.3,2.8,-39.5,-6.9C-37.7,-16.6,-33.6,-25.9,-26.6,-31.9C-19.6,-38,-9.8,-40.9,0,-40.9C9.8,-40.9,19.6,-38,26.4,-31.9Z" width="100%" height="100%" transform="translate(50 50)" style="transition: 0.3s;" stroke-width="0" stroke="url(#sw-gradient)"></path>
              </svg>